<?xml version="1.0" encoding="utf-8"?>
<!-- Generator: Adobe Illustrator 18.0.0, SVG Export Plug-In . SVG Version: 6.00 Build 0)  -->
<!DOCTYPE svg PUBLIC "-//W3C//DTD SVG 1.1//EN" "http://www.w3.org/Graphics/SVG/1.1/DTD/svg11.dtd">
<svg version="1.1" id="Logo" xmlns="http://www.w3.org/2000/svg" xmlns:xlink="http://www.w3.org/1999/xlink" x="0px" y="0px"
	 viewBox="0 0 154 40" enable-background="new 0 0 154 40" xml:space="preserve">
<g>
	<g id="Spiders">
		<g>
			<path fill="#4D5154" d="M59.6,19.9c-1.2-1.1-2.6-1.4-4-1.5l-6-0.6c-1,0-1.2-0.9-1.2-1.2c0-0.5,0.4-1.2,1.2-1.2l9.6,0l1.4-3.3
				H49.8c-3.6,0-5,2.6-5,4.7c0,1.4,0.8,2.6,1.4,3.2c1.1,1.1,2.6,1.3,3.9,1.5l6,0.6c1,0,1.2,0.9,1.2,1.2c0,0.5-0.4,1.2-1.2,1.2
				l-9.6,0L45,27.8h11.2c2.8,0,4.8-2,4.8-4.7C61,22.2,60.5,20.8,59.6,19.9z"/>
			<path fill="#4D5154" d="M135.1,21.1c0.9-0.9,1.5-2.2,1.5-3.9c0-1.5-0.4-2.8-1.2-3.8c-0.9-1.1-2.3-1.4-3.9-1.4h-10.8v15.8h3.3
				v-5.4h7.3h0.1c1,0,1.5,0.7,1.5,1.7v3.7h3.4v-3.7C136.3,22.8,135.9,21.8,135.1,21.1z M123.9,19.1v-3.7h7.6c1.3,0,1.6,1.2,1.6,1.9
				c0,0.2,0,1.9-1.6,1.9H123.9z"/>
			<path fill="#4D5154" d="M102.7,19.9c0,5.5,1.9,7.9,6.2,7.9h9.9v-3.3h-9.9c-2,0-2.6-1.4-2.8-2.9h10.4v-3.3h-10.4
				c0.2-1.5,0.8-2.9,2.8-2.9h9.9V12h-9.9C104.6,12,102.7,14.5,102.7,19.9z"/>
			<path fill="#4D5154" d="M95.3,12H85v15.8h10.2c4.3,0,6.2-2.4,6.2-7.9C101.4,14.5,99.5,12,95.3,12z M94.8,24.5h-6.5v-9.1h6.5
				c2.4,0,3.3,1.6,3.3,4.6C98.1,22.9,97.2,24.5,94.8,24.5z"/>
			<rect x="79.6" y="12" fill="#4D5154" width="3.3" height="15.8"/>
			<path fill="#4D5154" d="M72.9,12H62.1v15.8h3.3v-5.4h7.5c3.2,0,5.2-1.9,5.2-5.2c0-1.5-0.4-2.8-1.2-3.8C75.9,12.3,74.6,12,72.9,12
				z M73,19.1h-7.6v-3.7H73c1.3,0,1.6,1.2,1.6,1.9C74.6,17.4,74.6,19.1,73,19.1z"/>
			<path fill="#4D5154" d="M152.6,19.9c-1.2-1.1-2.6-1.4-4-1.5l-6-0.6c-1,0-1.2-0.9-1.2-1.2c0-0.5,0.4-1.2,1.2-1.2l9.6,0l1.4-3.3
				h-10.9c-3.6,0-5,2.6-5,4.7c0,1.4,0.8,2.6,1.4,3.2c1.1,1.1,2.6,1.3,3.9,1.5l6,0.6c1,0,1.2,0.9,1.2,1.2c0,0.5-0.4,1.2-1.2,1.2
				l-9.6,0l-1.4,3.3h11.2c2.8,0,4.8-2,4.8-4.7C154,22.2,153.5,20.8,152.6,19.9z"/>
		</g>
		<g>
			<g>
				<path fill="#4D5154" d="M34.3,13.5c-0.3,0-0.5,0.1-0.5,0.1l-13.9,6.4v0L31,17.6c0,0,0.2,0,0.5,0c0.5,0,1.2,0.1,1.6,0.8
					c0.7,1.1,2.8,5.1,2.9,5.2c0.3-1.1,0.4-2.3,0.4-3.6c0-2-0.4-4-1.1-5.8C35,13.6,34.6,13.5,34.3,13.5"/>
				<path fill="#4D5154" d="M19.9,19.9L19.9,19.9L19.9,19.9l7.2,3.1c0,0,1.3,0.5,1.7,1.4c0.5,1,3,6.6,3.1,6.7
					c0.4-0.4,0.8-0.9,1.1-1.3c-0.1-0.2-1.5-5.7-2-7.5c-0.4-1.5-1.5-1.6-1.5-1.6L19.9,19.9z"/>
				<path fill="#4D5154" d="M19.9,19.9L19.9,19.9l-0.3,9.6c0,0,0,1.1,1.4,1.7c1.7,0.7,7,2.8,7.2,2.9c0.5-0.3,1-0.6,1.4-0.9
					c-0.1-0.1-5.4-3.3-6.3-3.8c-0.8-0.5-1.2-1.9-1.2-1.9L19.9,19.9z"/>
				<path fill="#4D5154" d="M19.9,3.5c-0.5,0-1.1,0-1.6,0.1c0.1,0.1,3.8,2.7,4.8,3.5c0.9,0.7,0.5,2.1,0.5,2.1l-3.7,10.7l0,0h0l8-13
					c0,0,0.6-0.9-0.4-1.5C25.3,4.2,22.7,3.5,19.9,3.5"/>
				<path fill="#4D5154" d="M19.9,19.9L19.9,19.9l-8,13c0,0-0.6,0.9,0.3,1.5v0c2.3,1.2,4.9,1.9,7.6,1.9c0.5,0,1.1,0,1.6-0.1
					c-0.2-0.1-3.8-2.7-4.8-3.5c-0.9-0.7-0.5-2.1-0.5-2.1L19.9,19.9L19.9,19.9z"/>
				<path fill="#4D5154" d="M11.7,5.8c-0.5,0.3-1,0.6-1.4,0.9c0.1,0.1,5.4,3.3,6.3,3.8c0.8,0.5,1.2,1.9,1.2,1.9l2.2,7.5l0,0l0.3-9.6
					c0,0,0-1.1-1.4-1.7C17.1,8,11.8,5.8,11.7,5.8"/>
				<path fill="#4D5154" d="M3.9,16.4c-0.3,1.1-0.4,2.3-0.4,3.6c0,2,0.4,4,1.1,5.8c0.3,0.5,0.7,0.7,1,0.7c0.3,0,0.5-0.1,0.5-0.1
					l13.9-6.4l0,0l0,0L8.8,22.3c0,0-0.2,0-0.5,0c-0.5,0-1.2-0.1-1.6-0.7C6.1,20.4,3.9,16.4,3.9,16.4L3.9,16.4z"/>
				<path fill="#4D5154" d="M8,8.7C7.6,9.1,7.2,9.6,6.9,10c0,0.2,1.5,5.7,2,7.5c0.4,1.5,1.5,1.6,1.5,1.6l9.5,0.8l0,0l-7.2-3.1
					c0,0-1.3-0.5-1.7-1.4C10.6,14.5,8,8.8,8,8.7"/>
				<path fill="#4D5154" d="M13.1,11.7c-0.2,0-0.3,0.1-0.3,0.1s-0.2,0.2-0.2,0.4c0,0.2,0.4,3.3,0.4,3.5c0,0.1,0.1,0.4,0.4,0.5
					c0.3,0.1,3.4,1.2,3.4,1.2s0.1,0.1,0.3,0.1c0.2,0,0.3,0,0.5-0.2c0.4-0.3,0.2-0.8,0.2-0.8s-0.7-3.2-0.8-3.5
					c-0.1-0.3-0.3-0.4-0.5-0.4c-0.2,0-3.2-0.8-3.4-0.8C13.2,11.7,13.1,11.7,13.1,11.7"/>
			</g>
			<g>
				<path fill="#F05C22" d="M19.9,39.8C8.9,39.8,0,30.9,0,19.9C0,8.9,8.9,0,19.9,0c11,0,19.9,8.9,19.9,19.9
					C39.8,30.9,30.9,39.8,19.9,39.8z M19.9,1.5C9.8,1.5,1.5,9.8,1.5,19.9s8.3,18.4,18.4,18.4s18.4-8.3,18.4-18.4S30.1,1.5,19.9,1.5z
					"/>
			</g>
		</g>
	</g>
	<g>
		<g>
			<path fill="#7C8189" d="M45.6,2.8h1.6c0.5,0,1,0,1.3,0.4c0.2,0.2,0.2,0.6,0.2,0.9c0,0.8-0.5,0.9-0.7,1c0.2,0.1,0.3,0.1,0.5,0.3
				c0.2,0.2,0.3,0.5,0.3,0.9c0,0.4-0.2,0.9-0.5,1.1c-0.4,0.2-0.7,0.2-1.2,0.2h-1.6V2.8z M46.6,4.7h0.3c0.3,0,0.8,0,0.8-0.6
				c0-0.6-0.5-0.6-0.7-0.6h-0.4V4.7z M46.6,6.7h0.5c0.4,0,0.7-0.2,0.7-0.6c0-0.6-0.5-0.6-0.7-0.6h-0.5V6.7z"/>
			<path fill="#7C8189" d="M51.2,2.8v2.7c0,0.7,0,1.3,0.7,1.3c0.3,0,0.5-0.1,0.5-0.3c0.1-0.2,0.1-0.4,0.1-1V2.8h0.9v2.7
				c0,0.8,0,1.5-0.6,1.9c-0.2,0.1-0.5,0.3-1,0.3c-1.6,0-1.6-1.1-1.6-2.1V2.8H51.2z"/>
			<path fill="#7C8189" d="M56,2.8v4.8h-1V2.8H56z"/>
			<path fill="#7C8189" d="M58.7,2.8v3.9h1.5v0.9h-2.6V2.8H58.7z"/>
			<path fill="#7C8189" d="M63.8,2.8v0.9h-1v3.9h-1V3.6h-0.9V2.8H63.8z"/>
			<path fill="#7C8189" d="M67.3,2.8h1.6c0.5,0,1,0,1.3,0.4c0.2,0.2,0.2,0.6,0.2,0.9c0,0.8-0.5,0.9-0.7,1c0.2,0.1,0.3,0.1,0.5,0.3
				c0.2,0.2,0.3,0.5,0.3,0.9c0,0.4-0.2,0.9-0.5,1.1c-0.4,0.2-0.7,0.2-1.2,0.2h-1.6V2.8z M68.3,4.7h0.3c0.3,0,0.8,0,0.8-0.6
				c0-0.6-0.5-0.6-0.7-0.6h-0.4V4.7z M68.3,6.7h0.5c0.4,0,0.7-0.2,0.7-0.6c0-0.6-0.5-0.6-0.7-0.6h-0.5V6.7z"/>
			<path fill="#7C8189" d="M72.5,2.8l0.7,1.7l0.7-1.7h1l-1.3,2.8v2h-1v-2l-1.2-2.8H72.5z"/>
		</g>
		<g>
			<g>
				<path fill="#7C8189" d="M80.1,4.2C80,4,79.9,3.6,79.4,3.6c-0.3,0-0.5,0.2-0.5,0.4c0,0.3,0.3,0.4,0.8,0.6C80.3,4.9,81,5.1,81,6.1
					c0,0.8-0.6,1.5-1.7,1.5c-0.3,0-0.8-0.1-1.2-0.5c-0.3-0.3-0.3-0.6-0.4-0.8L78.6,6c0.1,0.2,0.2,0.7,0.8,0.7c0.4,0,0.6-0.2,0.6-0.5
					c0-0.3-0.3-0.5-0.6-0.6c-0.6-0.2-1.4-0.5-1.4-1.5c0-0.7,0.5-1.4,1.5-1.4c1.2,0,1.4,0.8,1.5,1.1L80.1,4.2z"/>
				<path fill="#7C8189" d="M83.1,2.8l0.7,1.7l0.7-1.7h1l-1.3,2.7v2h-1v-2L82,2.8H83.1z"/>
				<path fill="#7C8189" d="M88,2.8c0.5,0,0.9,0,1.3,0.4c0.2,0.3,0.3,0.6,0.3,1c0,0.8-0.4,1.1-0.7,1.2l0.9,2h-1.1l-0.6-1.9h-0.5v1.9
					h-1V2.8H88z M87.5,3.6v1.3H88c0.4,0,0.6-0.3,0.6-0.7c0-0.6-0.5-0.6-0.6-0.6H87.5z"/>
				<path fill="#7C8189" d="M93.3,2.8l1.3,4.7h-1l-0.2-1H92l-0.2,1h-1l1.4-4.7H93.3z M93.1,5.7l-0.5-1.9l-0.5,1.9H93.1z"/>
				<path fill="#7C8189" d="M98.9,5.9c-0.1,1-0.6,1.7-1.6,1.7c-1.4,0-1.8-1.3-1.8-2.4c0-0.9,0.2-2.4,1.8-2.4c0.7,0,1.1,0.3,1.3,0.6
					c0.3,0.4,0.3,0.9,0.3,1.2l-0.9,0.1c0-0.4-0.1-1-0.7-1c-0.6,0-0.7,0.7-0.7,1.7c0,0.8,0.1,1.5,0.7,1.5c0.6,0,0.6-0.7,0.7-0.9
					L98.9,5.9z"/>
				<path fill="#7C8189" d="M101.2,2.8v2.7c0,0.7,0,1.2,0.7,1.2c0.3,0,0.5-0.1,0.5-0.3c0.1-0.2,0.1-0.4,0.1-0.9V2.8h0.9v2.6
					c0,0.8,0,1.5-0.6,1.9c-0.2,0.1-0.5,0.3-1,0.3c-1.6,0-1.6-1.1-1.6-2.1V2.8H101.2z"/>
				<path fill="#7C8189" d="M106.8,4.2c-0.1-0.2-0.2-0.6-0.7-0.6c-0.3,0-0.5,0.2-0.5,0.4c0,0.3,0.3,0.4,0.8,0.6
					c0.5,0.2,1.3,0.5,1.3,1.4c0,0.8-0.6,1.5-1.7,1.5c-0.3,0-0.8-0.1-1.2-0.5c-0.3-0.3-0.3-0.6-0.4-0.8l0.9-0.3
					c0.1,0.2,0.2,0.7,0.8,0.7c0.4,0,0.6-0.2,0.6-0.5c0-0.3-0.3-0.5-0.6-0.6c-0.6-0.2-1.4-0.5-1.4-1.5c0-0.7,0.5-1.4,1.5-1.4
					c1.2,0,1.4,0.8,1.5,1.1L106.8,4.2z"/>
				<path fill="#7C8189" d="M111.9,2.8v0.8h-1.8v1.1h1.4v0.8h-1.4v1.2h1.8v0.8h-2.9V2.8H111.9z"/>
			</g>
			<g>
				<path fill="#7C8189" d="M116.8,2.8v2.7c0,0.7,0,1.2,0.7,1.2c0.3,0,0.5-0.1,0.5-0.3c0.1-0.2,0.1-0.4,0.1-0.9V2.8h0.9v2.6
					c0,0.8,0,1.5-0.6,1.9c-0.2,0.1-0.5,0.3-1,0.3c-1.6,0-1.6-1.1-1.6-2.1V2.8H116.8z"/>
				<path fill="#7C8189" d="M121.6,2.8l1.2,2.9V2.8h0.8v4.7h-0.9l-1.4-3.4v3.4h-0.8V2.8H121.6z"/>
				<path fill="#7C8189" d="M126.1,2.8v4.7h-1V2.8H126.1z"/>
				<path fill="#7C8189" d="M128.3,2.8l0.7,3.6l0.7-3.6h0.9l-1.2,4.7l-1.2,0l-1.1-4.7H128.3z"/>
				<path fill="#7C8189" d="M134.5,2.8v0.8h-1.8v1.1h1.4v0.8h-1.4v1.2h1.8v0.8h-2.9V2.8H134.5z"/>
				<path fill="#7C8189" d="M137.2,2.8c0.5,0,0.9,0,1.3,0.4c0.2,0.3,0.3,0.6,0.3,1c0,0.8-0.4,1.1-0.7,1.2l0.9,2h-1.1l-0.6-1.9h-0.5
					v1.9h-1V2.8H137.2z M136.8,3.6v1.3h0.5c0.4,0,0.6-0.3,0.6-0.7c0-0.6-0.5-0.6-0.6-0.6H136.8z"/>
				<path fill="#7C8189" d="M142.2,4.2c-0.1-0.2-0.2-0.6-0.7-0.6c-0.3,0-0.5,0.2-0.5,0.4c0,0.3,0.3,0.4,0.8,0.6
					c0.5,0.2,1.3,0.5,1.3,1.4c0,0.8-0.6,1.5-1.7,1.5c-0.3,0-0.8-0.1-1.2-0.5c-0.3-0.3-0.3-0.6-0.4-0.8l0.9-0.3
					c0.1,0.2,0.2,0.7,0.8,0.7c0.4,0,0.6-0.2,0.6-0.5c0-0.3-0.3-0.5-0.6-0.6c-0.6-0.2-1.4-0.5-1.4-1.5c0-0.7,0.5-1.4,1.5-1.4
					c1.2,0,1.4,0.8,1.5,1.1L142.2,4.2z"/>
				<path fill="#7C8189" d="M145.5,2.8v4.7h-1V2.8H145.5z"/>
				<path fill="#7C8189" d="M149.4,2.8v0.9h-1v3.8h-1V3.7h-0.9V2.8H149.4z"/>
				<path fill="#7C8189" d="M151,2.8l0.7,1.7l0.7-1.7h1l-1.3,2.7v2h-1v-2l-1.2-2.7H151z"/>
			</g>
		</g>
	</g>
</g>
</svg>
